<svg viewBox="0 0 720 700" xmlns="http://www.w3.org/2000/svg" font-family="ui-monospace, SFMono-Regular, 'SF Mono', Menlo, Consolas, 'Liberation Mono', monospace">
<style>
@media (prefers-color-scheme: light) {
  .bg    { fill: #ffffff; }
  .panel { fill: #f6f8fa; stroke: #d0d7de; }
  .key   { fill: #ffffff; stroke: #d0d7de; }
  .dead  { fill: #f6f8fa; stroke: #d0d7de; }
  .kt    { fill: #24292f; }
  .sect  { fill: #57606a; }

  .k-sh  { fill: #ddf4ff; stroke: #0969da; }
  .sh-t  { fill: #0969da; }
  .k-ct  { fill: #dafbe1; stroke: #1a7f37; }
  .ct-t  { fill: #1a7f37; }
  .k-al  { fill: #fbefff; stroke: #8250df; }
  .al-t  { fill: #8250df; }
  .k-nu  { fill: #fff8c5; stroke: #9a6700; }
  .nu-t  { fill: #24292f; }
  .k-la  { fill: #fff1e5; stroke: #bc4c00; }
  .la-t  { fill: #bc4c00; }

  .leg-sh { fill: #0969da; }
  .leg-ct { fill: #1a7f37; }
  .leg-al { fill: #8250df; }
  .leg-nu { fill: #24292f; }
  .leg-la { fill: #bc4c00; }
}
@media (prefers-color-scheme: dark) {
  .bg    { fill: #0d1117; }
  .panel { fill: #161b22; stroke: #30363d; }
  .key   { fill: #21262d; stroke: #30363d; }
  .dead  { fill: #1e2530; stroke: #3a424d; }
  .kt    { fill: #e6edf3; }
  .sect  { fill: #8b949e; }

  .k-sh  { fill: #0d2d4a; stroke: #388bfd; }
  .sh-t  { fill: #79c0ff; }
  .k-ct  { fill: #0d2b1a; stroke: #3fb950; }
  .ct-t  { fill: #56d364; }
  .k-al  { fill: #1e0f3a; stroke: #bc8cff; }
  .al-t  { fill: #d2a8ff; }
  .k-nu  { fill: #2b1f00; stroke: #d29922; }
  .nu-t  { fill: #e6edf3; }
  .k-la  { fill: #2b1100; stroke: #f0883e; }
  .la-t  { fill: #f0883e; }

  .leg-sh { fill: #79c0ff; }
  .leg-ct { fill: #56d364; }
  .leg-al { fill: #d2a8ff; }
  .leg-nu { fill: #e6edf3; }
  .leg-la { fill: #f0883e; }
}
</style>

<rect width="720" height="700" rx="12" class="bg"/>

<!-- ═══ BASE ═══ -->
<rect x="20" y="14" width="680" height="196" rx="8" class="panel" stroke-width="1"/>
<text x="360" y="34" class="sect" font-size="11" font-weight="600" text-anchor="middle">BASE</text>

<g transform="translate(114,46)">
  <rect x="0"   y="0" width="38" height="28" rx="3" class="key" stroke-width="0.8"/><text x="19"  y="14" class="kt" font-size="11" text-anchor="middle" dominant-baseline="middle">Q</text>
  <rect x="42"  y="0" width="38" height="28" rx="3" class="key" stroke-width="0.8"/><text x="61"  y="14" class="kt" font-size="11" text-anchor="middle" dominant-baseline="middle">W</text>
  <rect x="84"  y="0" width="38" height="28" rx="3" class="key" stroke-width="0.8"/><text x="103" y="14" class="kt" font-size="11" text-anchor="middle" dominant-baseline="middle">E</text>
  <rect x="126" y="0" width="38" height="28" rx="3" class="key" stroke-width="0.8"/><text x="145" y="14" class="kt" font-size="11" text-anchor="middle" dominant-baseline="middle">R</text>
  <rect x="168" y="0" width="38" height="28" rx="3" class="key" stroke-width="0.8"/><text x="187" y="14" class="kt" font-size="11" text-anchor="middle" dominant-baseline="middle">T</text>
  <rect x="286" y="0" width="38" height="28" rx="3" class="key" stroke-width="0.8"/><text x="305" y="14" class="kt" font-size="11" text-anchor="middle" dominant-baseline="middle">Y</text>
  <rect x="328" y="0" width="38" height="28" rx="3" class="key" stroke-width="0.8"/><text x="347" y="14" class="kt" font-size="11" text-anchor="middle" dominant-baseline="middle">U</text>
  <rect x="370" y="0" width="38" height="28" rx="3" class="key" stroke-width="0.8"/><text x="389" y="14" class="kt" font-size="11" text-anchor="middle" dominant-baseline="middle">I</text>
  <rect x="412" y="0" width="38" height="28" rx="3" class="key" stroke-width="0.8"/><text x="431" y="14" class="kt" font-size="11" text-anchor="middle" dominant-baseline="middle">O</text>
  <rect x="454" y="0" width="38" height="28" rx="3" class="key" stroke-width="0.8"/><text x="473" y="14" class="kt" font-size="11" text-anchor="middle" dominant-baseline="middle">P</text>
</g>

<g transform="translate(114,80)">
  <rect x="0"   y="0" width="38" height="28" rx="3" class="k-sh" stroke-width="1"/>
  <text x="6"   y="9"  class="sh-t" font-size="10" text-anchor="start">A</text>
  <text x="32"  y="23" class="sh-t" font-size="8"  text-anchor="end">⇧</text>
  <rect x="42"  y="0" width="38" height="28" rx="3" class="key" stroke-width="0.8"/><text x="61"  y="14" class="kt" font-size="11" text-anchor="middle" dominant-baseline="middle">S</text>
  <rect x="84"  y="0" width="38" height="28" rx="3" class="key" stroke-width="0.8"/><text x="103" y="14" class="kt" font-size="11" text-anchor="middle" dominant-baseline="middle">D</text>
  <rect x="126" y="0" width="38" height="28" rx="3" class="key" stroke-width="0.8"/><text x="145" y="14" class="kt" font-size="11" text-anchor="middle" dominant-baseline="middle">F</text>
  <rect x="168" y="0" width="38" height="28" rx="3" class="key" stroke-width="0.8"/><text x="187" y="14" class="kt" font-size="11" text-anchor="middle" dominant-baseline="middle">G</text>
  <rect x="286" y="0" width="38" height="28" rx="3" class="key" stroke-width="0.8"/><text x="305" y="14" class="kt" font-size="11" text-anchor="middle" dominant-baseline="middle">H</text>
  <rect x="328" y="0" width="38" height="28" rx="3" class="key" stroke-width="0.8"/><text x="347" y="14" class="kt" font-size="11" text-anchor="middle" dominant-baseline="middle">J</text>
  <rect x="370" y="0" width="38" height="28" rx="3" class="key" stroke-width="0.8"/><text x="389" y="14" class="kt" font-size="11" text-anchor="middle" dominant-baseline="middle">K</text>
  <rect x="412" y="0" width="38" height="28" rx="3" class="key" stroke-width="0.8"/><text x="431" y="14" class="kt" font-size="11" text-anchor="middle" dominant-baseline="middle">L</text>
  <rect x="454" y="0" width="38" height="28" rx="3" class="k-sh" stroke-width="1"/>
  <text x="460" y="9"  class="sh-t" font-size="10" text-anchor="start">;</text>
  <text x="486" y="23" class="sh-t" font-size="8"  text-anchor="end">⇧</text>
</g>

<g transform="translate(114,114)">
  <rect x="0"   y="0" width="38" height="28" rx="3" class="k-ct" stroke-width="1"/>
  <text x="6"   y="9"  class="ct-t" font-size="10" text-anchor="start">Z</text>
  <text x="32"  y="23" class="ct-t" font-size="8"  text-anchor="end">⌃</text>
  <rect x="42"  y="0" width="38" height="28" rx="3" class="key" stroke-width="0.8"/><text x="61"  y="14" class="kt" font-size="11" text-anchor="middle" dominant-baseline="middle">X</text>
  <rect x="84"  y="0" width="38" height="28" rx="3" class="key" stroke-width="0.8"/><text x="103" y="14" class="kt" font-size="11" text-anchor="middle" dominant-baseline="middle">C</text>
  <rect x="126" y="0" width="38" height="28" rx="3" class="key" stroke-width="0.8"/><text x="145" y="14" class="kt" font-size="11" text-anchor="middle" dominant-baseline="middle">V</text>
  <rect x="168" y="0" width="38" height="28" rx="3" class="key" stroke-width="0.8"/><text x="187" y="14" class="kt" font-size="11" text-anchor="middle" dominant-baseline="middle">B</text>
  <rect x="286" y="0" width="38" height="28" rx="3" class="key" stroke-width="0.8"/><text x="305" y="14" class="kt" font-size="11" text-anchor="middle" dominant-baseline="middle">N</text>
  <rect x="328" y="0" width="38" height="28" rx="3" class="key" stroke-width="0.8"/><text x="347" y="14" class="kt" font-size="11" text-anchor="middle" dominant-baseline="middle">M</text>
  <rect x="370" y="0" width="38" height="28" rx="3" class="key" stroke-width="0.8"/><text x="389" y="14" class="kt" font-size="11" text-anchor="middle" dominant-baseline="middle">,</text>
  <rect x="412" y="0" width="38" height="28" rx="3" class="key" stroke-width="0.8"/><text x="431" y="14" class="kt" font-size="11" text-anchor="middle" dominant-baseline="middle">.</text>
  <rect x="454" y="0" width="38" height="28" rx="3" class="k-ct" stroke-width="1"/>
  <text x="460" y="9"  class="ct-t" font-size="10" text-anchor="start">/</text>
  <text x="486" y="23" class="ct-t" font-size="8"  text-anchor="end">⌃</text>
</g>

<g transform="translate(114,148)">
  <rect x="84"  y="0" width="38" height="28" rx="3" class="k-al" stroke-width="1"/>
  <text x="90"  y="9"  class="al-t" font-size="8"  text-anchor="start">ESC</text>
  <text x="116" y="23" class="al-t" font-size="8"  text-anchor="end">⌥</text>
  <rect x="126" y="0" width="38" height="28" rx="3" class="key" stroke-width="0.8"/><text x="145" y="14" class="kt" font-size="11" text-anchor="middle" dominant-baseline="middle">⌘</text>
  <rect x="168" y="0" width="38" height="28" rx="3" class="key" stroke-width="0.8"/><text x="187" y="14" class="kt" font-size="11" text-anchor="middle" dominant-baseline="middle">BSP</text>
  <rect x="286" y="0" width="38" height="28" rx="3" class="key" stroke-width="0.8"/><text x="305" y="14" class="kt" font-size="11" text-anchor="middle" dominant-baseline="middle">TAB</text>
  <rect x="328" y="0" width="38" height="28" rx="3" class="k-la" stroke-width="1"/>
  <text x="334" y="9"  class="la-t" font-size="8"  text-anchor="start">SPC</text>
  <text x="360" y="23" class="la-t" font-size="7"  text-anchor="end">NUM</text>
  <rect x="370" y="0" width="38" height="28" rx="3" class="k-la" stroke-width="1"/>
  <text x="376" y="9"  class="la-t" font-size="8"  text-anchor="start">ENT</text>
  <text x="402" y="23" class="la-t" font-size="7"  text-anchor="end">NAV</text>
</g>

<!-- ═══ NAV ═══ -->
<rect x="20" y="224" width="680" height="196" rx="8" class="panel" stroke-width="1"/>
<text x="360" y="244" class="sect" font-size="11" font-weight="600" text-anchor="middle">NAV  (hold ENT)</text>

<g transform="translate(114,256)">
  <rect x="0"   y="0" width="38" height="28" rx="3" class="key" stroke-width="0.8"/><text x="19"  y="14" class="kt" font-size="11" text-anchor="middle" dominant-baseline="middle">F1</text>
  <rect x="42"  y="0" width="38" height="28" rx="3" class="key" stroke-width="0.8"/><text x="61"  y="14" class="kt" font-size="11" text-anchor="middle" dominant-baseline="middle">F2</text>
  <rect x="84"  y="0" width="38" height="28" rx="3" class="key" stroke-width="0.8"/><text x="103" y="14" class="kt" font-size="11" text-anchor="middle" dominant-baseline="middle">F3</text>
  <rect x="126" y="0" width="38" height="28" rx="3" class="key" stroke-width="0.8"/><text x="145" y="14" class="kt" font-size="11" text-anchor="middle" dominant-baseline="middle">F4</text>
  <rect x="168" y="0" width="38" height="28" rx="3" class="key" stroke-width="0.8"/><text x="187" y="14" class="kt" font-size="11" text-anchor="middle" dominant-baseline="middle">F5</text>
  <rect x="286" y="0" width="38" height="28" rx="3" class="key" stroke-width="0.8"/><text x="305" y="14" class="kt" font-size="11" text-anchor="middle" dominant-baseline="middle">F6</text>
  <rect x="328" y="0" width="38" height="28" rx="3" class="key" stroke-width="0.8"/><text x="347" y="14" class="kt" font-size="11" text-anchor="middle" dominant-baseline="middle">F7</text>
  <rect x="370" y="0" width="38" height="28" rx="3" class="key" stroke-width="0.8"/><text x="389" y="14" class="kt" font-size="11" text-anchor="middle" dominant-baseline="middle">F8</text>
  <rect x="412" y="0" width="38" height="28" rx="3" class="key" stroke-width="0.8"/><text x="431" y="14" class="kt" font-size="11" text-anchor="middle" dominant-baseline="middle">F9</text>
  <rect x="454" y="0" width="38" height="28" rx="3" class="key" stroke-width="0.8"/><text x="473" y="14" class="kt" font-size="11" text-anchor="middle" dominant-baseline="middle">F10</text>
</g>

<g transform="translate(114,290)">
  <rect x="0"   y="0" width="38" height="28" rx="3" class="key" stroke-width="0.8"/><text x="19"  y="14" class="kt" font-size="11" text-anchor="middle" dominant-baseline="middle">F11</text>
  <rect x="42"  y="0" width="38" height="28" rx="3" class="key" stroke-width="0.8"/><text x="61"  y="14" class="kt" font-size="11" text-anchor="middle" dominant-baseline="middle">F12</text>
  <rect x="84"  y="0" width="38" height="28" rx="3" class="k-sh" stroke-width="1"/><text x="103" y="14" class="sh-t" font-size="11" text-anchor="middle" dominant-baseline="middle">↑</text>
  <rect x="126" y="0" width="38" height="28" rx="3" class="dead" stroke-width="0.8"/>
  <rect x="168" y="0" width="38" height="28" rx="3" class="dead" stroke-width="0.8"/>
  <rect x="286" y="0" width="38" height="28" rx="3" class="dead" stroke-width="0.8"/>
  <rect x="328" y="0" width="38" height="28" rx="3" class="k-sh" stroke-width="1"/><text x="347" y="14" class="sh-t" font-size="11" text-anchor="middle" dominant-baseline="middle">PgU</text>
  <rect x="370" y="0" width="38" height="28" rx="3" class="k-sh" stroke-width="1"/><text x="389" y="14" class="sh-t" font-size="11" text-anchor="middle" dominant-baseline="middle">Hom</text>
  <rect x="412" y="0" width="38" height="28" rx="3" class="dead" stroke-width="0.8"/>
  <rect x="454" y="0" width="38" height="28" rx="3" class="dead" stroke-width="0.8"/>
</g>

<g transform="translate(114,324)">
  <rect x="0"   y="0" width="38" height="28" rx="3" class="dead" stroke-width="0.8"/>
  <rect x="42"  y="0" width="38" height="28" rx="3" class="k-sh" stroke-width="1"/><text x="61"  y="14" class="sh-t" font-size="11" text-anchor="middle" dominant-baseline="middle">←</text>
  <rect x="84"  y="0" width="38" height="28" rx="3" class="k-sh" stroke-width="1"/><text x="103" y="14" class="sh-t" font-size="11" text-anchor="middle" dominant-baseline="middle">↓</text>
  <rect x="126" y="0" width="38" height="28" rx="3" class="k-sh" stroke-width="1"/><text x="145" y="14" class="sh-t" font-size="11" text-anchor="middle" dominant-baseline="middle">→</text>
  <rect x="168" y="0" width="38" height="28" rx="3" class="dead" stroke-width="0.8"/>
  <rect x="286" y="0" width="38" height="28" rx="3" class="dead" stroke-width="0.8"/>
  <rect x="328" y="0" width="38" height="28" rx="3" class="k-sh" stroke-width="1"/><text x="347" y="14" class="sh-t" font-size="11" text-anchor="middle" dominant-baseline="middle">PgD</text>
  <rect x="370" y="0" width="38" height="28" rx="3" class="k-sh" stroke-width="1"/><text x="389" y="14" class="sh-t" font-size="11" text-anchor="middle" dominant-baseline="middle">End</text>
  <rect x="412" y="0" width="38" height="28" rx="3" class="dead" stroke-width="0.8"/>
  <rect x="454" y="0" width="38" height="28" rx="3" class="dead" stroke-width="0.8"/>
</g>

<g transform="translate(114,358)">
  <rect x="84"  y="0" width="38" height="28" rx="3" class="dead" stroke-width="0.8"/>
  <rect x="126" y="0" width="38" height="28" rx="3" class="dead" stroke-width="0.8"/>
  <rect x="168" y="0" width="38" height="28" rx="3" class="k-ct" stroke-width="1"/><text x="187" y="14" class="ct-t" font-size="11" text-anchor="middle" dominant-baseline="middle">DEL</text>
  <rect x="286" y="0" width="38" height="28" rx="3" class="dead" stroke-width="0.8"/>
  <rect x="328" y="0" width="38" height="28" rx="3" class="dead" stroke-width="0.8"/>
  <rect x="370" y="0" width="38" height="28" rx="3" class="k-la" stroke-width="1"/><text x="389" y="14" class="la-t" font-size="11" text-anchor="middle" dominant-baseline="middle">▼</text>
</g>

<!-- ═══ NUM ═══ -->
<rect x="20" y="434" width="680" height="196" rx="8" class="panel" stroke-width="1"/>
<text x="360" y="454" class="sect" font-size="11" font-weight="600" text-anchor="middle">NUM  (hold SPC)</text>

<g transform="translate(114,466)">
  <rect x="0"   y="0" width="38" height="28" rx="3" class="k-nu" stroke-width="1"/><text x="19"  y="14" class="nu-t" font-size="11" text-anchor="middle" dominant-baseline="middle">1</text>
  <rect x="42"  y="0" width="38" height="28" rx="3" class="k-nu" stroke-width="1"/><text x="61"  y="14" class="nu-t" font-size="11" text-anchor="middle" dominant-baseline="middle">2</text>
  <rect x="84"  y="0" width="38" height="28" rx="3" class="k-nu" stroke-width="1"/><text x="103" y="14" class="nu-t" font-size="11" text-anchor="middle" dominant-baseline="middle">3</text>
  <rect x="126" y="0" width="38" height="28" rx="3" class="k-nu" stroke-width="1"/><text x="145" y="14" class="nu-t" font-size="11" text-anchor="middle" dominant-baseline="middle">4</text>
  <rect x="168" y="0" width="38" height="28" rx="3" class="k-nu" stroke-width="1"/><text x="187" y="14" class="nu-t" font-size="11" text-anchor="middle" dominant-baseline="middle">5</text>
  <rect x="286" y="0" width="38" height="28" rx="3" class="k-nu" stroke-width="1"/><text x="305" y="14" class="nu-t" font-size="11" text-anchor="middle" dominant-baseline="middle">6</text>
  <rect x="328" y="0" width="38" height="28" rx="3" class="k-nu" stroke-width="1"/><text x="347" y="14" class="nu-t" font-size="11" text-anchor="middle" dominant-baseline="middle">7</text>
  <rect x="370" y="0" width="38" height="28" rx="3" class="k-nu" stroke-width="1"/><text x="389" y="14" class="nu-t" font-size="11" text-anchor="middle" dominant-baseline="middle">8</text>
  <rect x="412" y="0" width="38" height="28" rx="3" class="k-nu" stroke-width="1"/><text x="431" y="14" class="nu-t" font-size="11" text-anchor="middle" dominant-baseline="middle">9</text>
  <rect x="454" y="0" width="38" height="28" rx="3" class="k-nu" stroke-width="1"/><text x="473" y="14" class="nu-t" font-size="11" text-anchor="middle" dominant-baseline="middle">0</text>
</g>

<g transform="translate(114,500)">
  <rect x="0"   y="0" width="38" height="28" rx="3" class="k-nu" stroke-width="1"/><text x="19"  y="14" class="nu-t" font-size="11" text-anchor="middle" dominant-baseline="middle">-</text>
  <rect x="42"  y="0" width="38" height="28" rx="3" class="k-nu" stroke-width="1"/><text x="61"  y="14" class="nu-t" font-size="11" text-anchor="middle" dominant-baseline="middle">=</text>
  <rect x="84"  y="0" width="38" height="28" rx="3" class="k-nu" stroke-width="1"/><text x="103" y="14" class="nu-t" font-size="11" text-anchor="middle" dominant-baseline="middle">[</text>
  <rect x="126" y="0" width="38" height="28" rx="3" class="k-nu" stroke-width="1"/><text x="145" y="14" class="nu-t" font-size="11" text-anchor="middle" dominant-baseline="middle">]</text>
  <rect x="168" y="0" width="38" height="28" rx="3" class="k-nu" stroke-width="1"/><text x="187" y="14" class="nu-t" font-size="11" text-anchor="middle" dominant-baseline="middle">\</text>
  <rect x="286" y="0" width="38" height="28" rx="3" class="dead" stroke-width="0.8"/>
  <rect x="328" y="0" width="38" height="28" rx="3" class="dead" stroke-width="0.8"/>
  <rect x="370" y="0" width="38" height="28" rx="3" class="dead" stroke-width="0.8"/>
  <rect x="412" y="0" width="38" height="28" rx="3" class="dead" stroke-width="0.8"/>
  <rect x="454" y="0" width="38" height="28" rx="3" class="dead" stroke-width="0.8"/>
</g>

<g transform="translate(114,534)">
  <rect x="0"   y="0" width="38" height="28" rx="3" class="dead" stroke-width="0.8"/>
  <rect x="42"  y="0" width="38" height="28" rx="3" class="dead" stroke-width="0.8"/>
  <rect x="84"  y="0" width="38" height="28" rx="3" class="dead" stroke-width="0.8"/>
  <rect x="126" y="0" width="38" height="28" rx="3" class="dead" stroke-width="0.8"/>
  <rect x="168" y="0" width="38" height="28" rx="3" class="dead" stroke-width="0.8"/>
  <rect x="286" y="0" width="38" height="28" rx="3" class="dead" stroke-width="0.8"/>
  <rect x="328" y="0" width="38" height="28" rx="3" class="dead" stroke-width="0.8"/>
  <rect x="370" y="0" width="38" height="28" rx="3" class="dead" stroke-width="0.8"/>
  <rect x="412" y="0" width="38" height="28" rx="3" class="dead" stroke-width="0.8"/>
  <rect x="454" y="0" width="38" height="28" rx="3" class="dead" stroke-width="0.8"/>
</g>

<g transform="translate(114,568)">
  <rect x="84"  y="0" width="38" height="28" rx="3" class="dead" stroke-width="0.8"/>
  <rect x="126" y="0" width="38" height="28" rx="3" class="k-nu" stroke-width="1"/><text x="145" y="14" class="nu-t" font-size="11" text-anchor="middle" dominant-baseline="middle">`</text>
  <rect x="168" y="0" width="38" height="28" rx="3" class="k-nu" stroke-width="1"/><text x="187" y="14" class="nu-t" font-size="11" text-anchor="middle" dominant-baseline="middle">'</text>
  <rect x="286" y="0" width="38" height="28" rx="3" class="dead" stroke-width="0.8"/>
  <rect x="328" y="0" width="38" height="28" rx="3" class="k-la" stroke-width="1"/><text x="347" y="14" class="la-t" font-size="11" text-anchor="middle" dominant-baseline="middle">▼</text>
  <rect x="370" y="0" width="38" height="28" rx="3" class="dead" stroke-width="0.8"/>
</g>

<!-- ═══ Legend ═══ -->
<rect x="20" y="644" width="680" height="44" rx="8" class="panel" stroke-width="1"/>
<g transform="translate(54,655)">
  <rect x="0"   y="0" width="14" height="14" rx="2" class="k-sh" stroke-width="1"/>
  <text x="20"  y="11" class="leg-sh" font-size="10" text-anchor="start">⇧ Shift hold</text>

  <rect x="120" y="0" width="14" height="14" rx="2" class="k-ct" stroke-width="1"/>
  <text x="140" y="11" class="leg-ct" font-size="10" text-anchor="start">⌃ Ctrl hold</text>

  <rect x="240" y="0" width="14" height="14" rx="2" class="k-al" stroke-width="1"/>
  <text x="260" y="11" class="leg-al" font-size="10" text-anchor="start">⌥ Alt hold</text>

  <rect x="360" y="0" width="14" height="14" rx="2" class="k-nu" stroke-width="1"/>
  <text x="380" y="11" class="leg-nu" font-size="10" text-anchor="start">NUM layer</text>

  <rect x="480" y="0" width="14" height="14" rx="2" class="k-la" stroke-width="1"/>
  <text x="500" y="11" class="leg-la" font-size="10" text-anchor="start">Layer hold</text>
</g>

</svg>
