<svg viewBox="0 0 720 700" xmlns="http://www.w3.org/2000/svg" font-family="ui-monospace, SFMono-Regular, 'SF Mono', Menlo, Consolas, 'Liberation Mono', monospace">

<rect width="720" height="700" rx="12" fill="#ffffff"/>

<!-- ═══ BASE ═══ -->
<rect x="20" y="14" width="680" height="196" rx="8" fill="#f6f8fa" stroke="#d0d7de" stroke-width="1"/>
<text x="360" y="34" fill="#57606a" font-size="11" font-weight="600" text-anchor="middle">BASE</text>

<g transform="translate(114,46)">
  <rect x="0"   y="0" width="38" height="28" rx="3" fill="#ffffff" stroke="#d0d7de" stroke-width="0.8"/><text x="19"  y="14" fill="#24292f" font-size="11" text-anchor="middle" dominant-baseline="middle">Q</text>
  <rect x="42"  y="0" width="38" height="28" rx="3" fill="#ffffff" stroke="#d0d7de" stroke-width="0.8"/><text x="61"  y="14" fill="#24292f" font-size="11" text-anchor="middle" dominant-baseline="middle">W</text>
  <rect x="84"  y="0" width="38" height="28" rx="3" fill="#ffffff" stroke="#d0d7de" stroke-width="0.8"/><text x="103" y="14" fill="#24292f" font-size="11" text-anchor="middle" dominant-baseline="middle">E</text>
  <rect x="126" y="0" width="38" height="28" rx="3" fill="#ffffff" stroke="#d0d7de" stroke-width="0.8"/><text x="145" y="14" fill="#24292f" font-size="11" text-anchor="middle" dominant-baseline="middle">R</text>
  <rect x="168" y="0" width="38" height="28" rx="3" fill="#ffffff" stroke="#d0d7de" stroke-width="0.8"/><text x="187" y="14" fill="#24292f" font-size="11" text-anchor="middle" dominant-baseline="middle">T</text>
  <rect x="286" y="0" width="38" height="28" rx="3" fill="#ffffff" stroke="#d0d7de" stroke-width="0.8"/><text x="305" y="14" fill="#24292f" font-size="11" text-anchor="middle" dominant-baseline="middle">Y</text>
  <rect x="328" y="0" width="38" height="28" rx="3" fill="#ffffff" stroke="#d0d7de" stroke-width="0.8"/><text x="347" y="14" fill="#24292f" font-size="11" text-anchor="middle" dominant-baseline="middle">U</text>
  <rect x="370" y="0" width="38" height="28" rx="3" fill="#ffffff" stroke="#d0d7de" stroke-width="0.8"/><text x="389" y="14" fill="#24292f" font-size="11" text-anchor="middle" dominant-baseline="middle">I</text>
  <rect x="412" y="0" width="38" height="28" rx="3" fill="#ffffff" stroke="#d0d7de" stroke-width="0.8"/><text x="431" y="14" fill="#24292f" font-size="11" text-anchor="middle" dominant-baseline="middle">O</text>
  <rect x="454" y="0" width="38" height="28" rx="3" fill="#ffffff" stroke="#d0d7de" stroke-width="0.8"/><text x="473" y="14" fill="#24292f" font-size="11" text-anchor="middle" dominant-baseline="middle">P</text>
</g>

<g transform="translate(114,80)">
  <rect x="0"   y="0" width="38" height="28" rx="3" fill="#ddf4ff" stroke="#0969da" stroke-width="1"/>
  <text x="6"   y="9"  fill="#0969da" font-size="10" text-anchor="start">A</text>
  <text x="32"  y="23" fill="#0969da" font-size="8"  text-anchor="end">⇧</text>
  <rect x="42"  y="0" width="38" height="28" rx="3" fill="#ffffff" stroke="#d0d7de" stroke-width="0.8"/><text x="61"  y="14" fill="#24292f" font-size="11" text-anchor="middle" dominant-baseline="middle">S</text>
  <rect x="84"  y="0" width="38" height="28" rx="3" fill="#ffffff" stroke="#d0d7de" stroke-width="0.8"/><text x="103" y="14" fill="#24292f" font-size="11" text-anchor="middle" dominant-baseline="middle">D</text>
  <rect x="126" y="0" width="38" height="28" rx="3" fill="#ffffff" stroke="#d0d7de" stroke-width="0.8"/><text x="145" y="14" fill="#24292f" font-size="11" text-anchor="middle" dominant-baseline="middle">F</text>
  <rect x="168" y="0" width="38" height="28" rx="3" fill="#ffffff" stroke="#d0d7de" stroke-width="0.8"/><text x="187" y="14" fill="#24292f" font-size="11" text-anchor="middle" dominant-baseline="middle">G</text>
  <rect x="286" y="0" width="38" height="28" rx="3" fill="#ffffff" stroke="#d0d7de" stroke-width="0.8"/><text x="305" y="14" fill="#24292f" font-size="11" text-anchor="middle" dominant-baseline="middle">H</text>
  <rect x="328" y="0" width="38" height="28" rx="3" fill="#ffffff" stroke="#d0d7de" stroke-width="0.8"/><text x="347" y="14" fill="#24292f" font-size="11" text-anchor="middle" dominant-baseline="middle">J</text>
  <rect x="370" y="0" width="38" height="28" rx="3" fill="#ffffff" stroke="#d0d7de" stroke-width="0.8"/><text x="389" y="14" fill="#24292f" font-size="11" text-anchor="middle" dominant-baseline="middle">K</text>
  <rect x="412" y="0" width="38" height="28" rx="3" fill="#ffffff" stroke="#d0d7de" stroke-width="0.8"/><text x="431" y="14" fill="#24292f" font-size="11" text-anchor="middle" dominant-baseline="middle">L</text>
  <rect x="454" y="0" width="38" height="28" rx="3" fill="#ddf4ff" stroke="#0969da" stroke-width="1"/>
  <text x="460" y="9"  fill="#0969da" font-size="10" text-anchor="start">;</text>
  <text x="486" y="23" fill="#0969da" font-size="8"  text-anchor="end">⇧</text>
</g>

<g transform="translate(114,114)">
  <rect x="0"   y="0" width="38" height="28" rx="3" fill="#dafbe1" stroke="#1a7f37" stroke-width="1"/>
  <text x="6"   y="9"  fill="#1a7f37" font-size="10" text-anchor="start">Z</text>
  <text x="32"  y="23" fill="#1a7f37" font-size="8"  text-anchor="end">⌃</text>
  <rect x="42"  y="0" width="38" height="28" rx="3" fill="#ffffff" stroke="#d0d7de" stroke-width="0.8"/><text x="61"  y="14" fill="#24292f" font-size="11" text-anchor="middle" dominant-baseline="middle">X</text>
  <rect x="84"  y="0" width="38" height="28" rx="3" fill="#ffffff" stroke="#d0d7de" stroke-width="0.8"/><text x="103" y="14" fill="#24292f" font-size="11" text-anchor="middle" dominant-baseline="middle">C</text>
  <rect x="126" y="0" width="38" height="28" rx="3" fill="#ffffff" stroke="#d0d7de" stroke-width="0.8"/><text x="145" y="14" fill="#24292f" font-size="11" text-anchor="middle" dominant-baseline="middle">V</text>
  <rect x="168" y="0" width="38" height="28" rx="3" fill="#ffffff" stroke="#d0d7de" stroke-width="0.8"/><text x="187" y="14" fill="#24292f" font-size="11" text-anchor="middle" dominant-baseline="middle">B</text>
  <rect x="286" y="0" width="38" height="28" rx="3" fill="#ffffff" stroke="#d0d7de" stroke-width="0.8"/><text x="305" y="14" fill="#24292f" font-size="11" text-anchor="middle" dominant-baseline="middle">N</text>
  <rect x="328" y="0" width="38" height="28" rx="3" fill="#ffffff" stroke="#d0d7de" stroke-width="0.8"/><text x="347" y="14" fill="#24292f" font-size="11" text-anchor="middle" dominant-baseline="middle">M</text>
  <rect x="370" y="0" width="38" height="28" rx="3" fill="#ffffff" stroke="#d0d7de" stroke-width="0.8"/><text x="389" y="14" fill="#24292f" font-size="11" text-anchor="middle" dominant-baseline="middle">,</text>
  <rect x="412" y="0" width="38" height="28" rx="3" fill="#ffffff" stroke="#d0d7de" stroke-width="0.8"/><text x="431" y="14" fill="#24292f" font-size="11" text-anchor="middle" dominant-baseline="middle">.</text>
  <rect x="454" y="0" width="38" height="28" rx="3" fill="#dafbe1" stroke="#1a7f37" stroke-width="1"/>
  <text x="460" y="9"  fill="#1a7f37" font-size="10" text-anchor="start">/</text>
  <text x="486" y="23" fill="#1a7f37" font-size="8"  text-anchor="end">⌃</text>
</g>

<g transform="translate(114,148)">
  <rect x="84"  y="0" width="38" height="28" rx="3" fill="#fbefff" stroke="#8250df" stroke-width="1"/>
  <text x="90"  y="9"  fill="#8250df" font-size="8"  text-anchor="start">ESC</text>
  <text x="116" y="23" fill="#8250df" font-size="8"  text-anchor="end">⌥</text>
  <rect x="126" y="0" width="38" height="28" rx="3" fill="#ffffff" stroke="#d0d7de" stroke-width="0.8"/><text x="145" y="14" fill="#24292f" font-size="11" text-anchor="middle" dominant-baseline="middle">⌘</text>
  <rect x="168" y="0" width="38" height="28" rx="3" fill="#ffffff" stroke="#d0d7de" stroke-width="0.8"/><text x="187" y="14" fill="#24292f" font-size="11" text-anchor="middle" dominant-baseline="middle">BSP</text>
  <rect x="286" y="0" width="38" height="28" rx="3" fill="#ffffff" stroke="#d0d7de" stroke-width="0.8"/><text x="305" y="14" fill="#24292f" font-size="11" text-anchor="middle" dominant-baseline="middle">TAB</text>
  <rect x="328" y="0" width="38" height="28" rx="3" fill="#fff1e5" stroke="#bc4c00" stroke-width="1"/>
  <text x="334" y="9"  fill="#bc4c00" font-size="8"  text-anchor="start">SPC</text>
  <text x="360" y="23" fill="#bc4c00" font-size="7"  text-anchor="end">NUM</text>
  <rect x="370" y="0" width="38" height="28" rx="3" fill="#fff1e5" stroke="#bc4c00" stroke-width="1"/>
  <text x="376" y="9"  fill="#bc4c00" font-size="8"  text-anchor="start">ENT</text>
  <text x="402" y="23" fill="#bc4c00" font-size="7"  text-anchor="end">NAV</text>
</g>

<!-- ═══ NAV ═══ -->
<rect x="20" y="224" width="680" height="196" rx="8" fill="#f6f8fa" stroke="#d0d7de" stroke-width="1"/>
<text x="360" y="244" fill="#57606a" font-size="11" font-weight="600" text-anchor="middle">NAV  (hold ENT)</text>

<g transform="translate(114,256)">
  <rect x="0"   y="0" width="38" height="28" rx="3" fill="#ffffff" stroke="#d0d7de" stroke-width="0.8"/><text x="19"  y="14" fill="#24292f" font-size="11" text-anchor="middle" dominant-baseline="middle">F1</text>
  <rect x="42"  y="0" width="38" height="28" rx="3" fill="#ffffff" stroke="#d0d7de" stroke-width="0.8"/><text x="61"  y="14" fill="#24292f" font-size="11" text-anchor="middle" dominant-baseline="middle">F2</text>
  <rect x="84"  y="0" width="38" height="28" rx="3" fill="#ffffff" stroke="#d0d7de" stroke-width="0.8"/><text x="103" y="14" fill="#24292f" font-size="11" text-anchor="middle" dominant-baseline="middle">F3</text>
  <rect x="126" y="0" width="38" height="28" rx="3" fill="#ffffff" stroke="#d0d7de" stroke-width="0.8"/><text x="145" y="14" fill="#24292f" font-size="11" text-anchor="middle" dominant-baseline="middle">F4</text>
  <rect x="168" y="0" width="38" height="28" rx="3" fill="#ffffff" stroke="#d0d7de" stroke-width="0.8"/><text x="187" y="14" fill="#24292f" font-size="11" text-anchor="middle" dominant-baseline="middle">F5</text>
  <rect x="286" y="0" width="38" height="28" rx="3" fill="#ffffff" stroke="#d0d7de" stroke-width="0.8"/><text x="305" y="14" fill="#24292f" font-size="11" text-anchor="middle" dominant-baseline="middle">F6</text>
  <rect x="328" y="0" width="38" height="28" rx="3" fill="#ffffff" stroke="#d0d7de" stroke-width="0.8"/><text x="347" y="14" fill="#24292f" font-size="11" text-anchor="middle" dominant-baseline="middle">F7</text>
  <rect x="370" y="0" width="38" height="28" rx="3" fill="#ffffff" stroke="#d0d7de" stroke-width="0.8"/><text x="389" y="14" fill="#24292f" font-size="11" text-anchor="middle" dominant-baseline="middle">F8</text>
  <rect x="412" y="0" width="38" height="28" rx="3" fill="#ffffff" stroke="#d0d7de" stroke-width="0.8"/><text x="431" y="14" fill="#24292f" font-size="11" text-anchor="middle" dominant-baseline="middle">F9</text>
  <rect x="454" y="0" width="38" height="28" rx="3" fill="#ffffff" stroke="#d0d7de" stroke-width="0.8"/><text x="473" y="14" fill="#24292f" font-size="11" text-anchor="middle" dominant-baseline="middle">F10</text>
</g>

<g transform="translate(114,290)">
  <rect x="0"   y="0" width="38" height="28" rx="3" fill="#ffffff" stroke="#d0d7de" stroke-width="0.8"/><text x="19"  y="14" fill="#24292f" font-size="11" text-anchor="middle" dominant-baseline="middle">F11</text>
  <rect x="42"  y="0" width="38" height="28" rx="3" fill="#ffffff" stroke="#d0d7de" stroke-width="0.8"/><text x="61"  y="14" fill="#24292f" font-size="11" text-anchor="middle" dominant-baseline="middle">F12</text>
  <rect x="84"  y="0" width="38" height="28" rx="3" fill="#ddf4ff" stroke="#0969da" stroke-width="1"/><text x="103" y="14" fill="#0969da" font-size="11" text-anchor="middle" dominant-baseline="middle">↑</text>
  <rect x="126" y="0" width="38" height="28" rx="3" fill="#f6f8fa" stroke="#d0d7de" stroke-width="0.8"/>
  <rect x="168" y="0" width="38" height="28" rx="3" fill="#f6f8fa" stroke="#d0d7de" stroke-width="0.8"/>
  <rect x="286" y="0" width="38" height="28" rx="3" fill="#f6f8fa" stroke="#d0d7de" stroke-width="0.8"/>
  <rect x="328" y="0" width="38" height="28" rx="3" fill="#ddf4ff" stroke="#0969da" stroke-width="1"/><text x="347" y="14" fill="#0969da" font-size="11" text-anchor="middle" dominant-baseline="middle">PgU</text>
  <rect x="370" y="0" width="38" height="28" rx="3" fill="#ddf4ff" stroke="#0969da" stroke-width="1"/><text x="389" y="14" fill="#0969da" font-size="11" text-anchor="middle" dominant-baseline="middle">Hom</text>
  <rect x="412" y="0" width="38" height="28" rx="3" fill="#f6f8fa" stroke="#d0d7de" stroke-width="0.8"/>
  <rect x="454" y="0" width="38" height="28" rx="3" fill="#f6f8fa" stroke="#d0d7de" stroke-width="0.8"/>
</g>

<g transform="translate(114,324)">
  <rect x="0"   y="0" width="38" height="28" rx="3" fill="#f6f8fa" stroke="#d0d7de" stroke-width="0.8"/>
  <rect x="42"  y="0" width="38" height="28" rx="3" fill="#ddf4ff" stroke="#0969da" stroke-width="1"/><text x="61"  y="14" fill="#0969da" font-size="11" text-anchor="middle" dominant-baseline="middle">←</text>
  <rect x="84"  y="0" width="38" height="28" rx="3" fill="#ddf4ff" stroke="#0969da" stroke-width="1"/><text x="103" y="14" fill="#0969da" font-size="11" text-anchor="middle" dominant-baseline="middle">↓</text>
  <rect x="126" y="0" width="38" height="28" rx="3" fill="#ddf4ff" stroke="#0969da" stroke-width="1"/><text x="145" y="14" fill="#0969da" font-size="11" text-anchor="middle" dominant-baseline="middle">→</text>
  <rect x="168" y="0" width="38" height="28" rx="3" fill="#f6f8fa" stroke="#d0d7de" stroke-width="0.8"/>
  <rect x="286" y="0" width="38" height="28" rx="3" fill="#f6f8fa" stroke="#d0d7de" stroke-width="0.8"/>
  <rect x="328" y="0" width="38" height="28" rx="3" fill="#ddf4ff" stroke="#0969da" stroke-width="1"/><text x="347" y="14" fill="#0969da" font-size="11" text-anchor="middle" dominant-baseline="middle">PgD</text>
  <rect x="370" y="0" width="38" height="28" rx="3" fill="#ddf4ff" stroke="#0969da" stroke-width="1"/><text x="389" y="14" fill="#0969da" font-size="11" text-anchor="middle" dominant-baseline="middle">End</text>
  <rect x="412" y="0" width="38" height="28" rx="3" fill="#f6f8fa" stroke="#d0d7de" stroke-width="0.8"/>
  <rect x="454" y="0" width="38" height="28" rx="3" fill="#f6f8fa" stroke="#d0d7de" stroke-width="0.8"/>
</g>

<g transform="translate(114,358)">
  <rect x="84"  y="0" width="38" height="28" rx="3" fill="#f6f8fa" stroke="#d0d7de" stroke-width="0.8"/>
  <rect x="126" y="0" width="38" height="28" rx="3" fill="#f6f8fa" stroke="#d0d7de" stroke-width="0.8"/>
  <rect x="168" y="0" width="38" height="28" rx="3" fill="#dafbe1" stroke="#1a7f37" stroke-width="1"/><text x="187" y="14" fill="#1a7f37" font-size="11" text-anchor="middle" dominant-baseline="middle">DEL</text>
  <rect x="286" y="0" width="38" height="28" rx="3" fill="#f6f8fa" stroke="#d0d7de" stroke-width="0.8"/>
  <rect x="328" y="0" width="38" height="28" rx="3" fill="#f6f8fa" stroke="#d0d7de" stroke-width="0.8"/>
  <rect x="370" y="0" width="38" height="28" rx="3" fill="#fff1e5" stroke="#bc4c00" stroke-width="1"/><text x="389" y="14" fill="#bc4c00" font-size="11" text-anchor="middle" dominant-baseline="middle">▼</text>
</g>

<!-- ═══ NUM ═══ -->
<rect x="20" y="434" width="680" height="196" rx="8" fill="#f6f8fa" stroke="#d0d7de" stroke-width="1"/>
<text x="360" y="454" fill="#57606a" font-size="11" font-weight="600" text-anchor="middle">NUM  (hold SPC)</text>

<g transform="translate(114,466)">
  <rect x="0"   y="0" width="38" height="28" rx="3" fill="#fff8c5" stroke="#9a6700" stroke-width="1"/><text x="19"  y="14" fill="#24292f" font-size="11" text-anchor="middle" dominant-baseline="middle">1</text>
  <rect x="42"  y="0" width="38" height="28" rx="3" fill="#fff8c5" stroke="#9a6700" stroke-width="1"/><text x="61"  y="14" fill="#24292f" font-size="11" text-anchor="middle" dominant-baseline="middle">2</text>
  <rect x="84"  y="0" width="38" height="28" rx="3" fill="#fff8c5" stroke="#9a6700" stroke-width="1"/><text x="103" y="14" fill="#24292f" font-size="11" text-anchor="middle" dominant-baseline="middle">3</text>
  <rect x="126" y="0" width="38" height="28" rx="3" fill="#fff8c5" stroke="#9a6700" stroke-width="1"/><text x="145" y="14" fill="#24292f" font-size="11" text-anchor="middle" dominant-baseline="middle">4</text>
  <rect x="168" y="0" width="38" height="28" rx="3" fill="#fff8c5" stroke="#9a6700" stroke-width="1"/><text x="187" y="14" fill="#24292f" font-size="11" text-anchor="middle" dominant-baseline="middle">5</text>
  <rect x="286" y="0" width="38" height="28" rx="3" fill="#fff8c5" stroke="#9a6700" stroke-width="1"/><text x="305" y="14" fill="#24292f" font-size="11" text-anchor="middle" dominant-baseline="middle">6</text>
  <rect x="328" y="0" width="38" height="28" rx="3" fill="#fff8c5" stroke="#9a6700" stroke-width="1"/><text x="347" y="14" fill="#24292f" font-size="11" text-anchor="middle" dominant-baseline="middle">7</text>
  <rect x="370" y="0" width="38" height="28" rx="3" fill="#fff8c5" stroke="#9a6700" stroke-width="1"/><text x="389" y="14" fill="#24292f" font-size="11" text-anchor="middle" dominant-baseline="middle">8</text>
  <rect x="412" y="0" width="38" height="28" rx="3" fill="#fff8c5" stroke="#9a6700" stroke-width="1"/><text x="431" y="14" fill="#24292f" font-size="11" text-anchor="middle" dominant-baseline="middle">9</text>
  <rect x="454" y="0" width="38" height="28" rx="3" fill="#fff8c5" stroke="#9a6700" stroke-width="1"/><text x="473" y="14" fill="#24292f" font-size="11" text-anchor="middle" dominant-baseline="middle">0</text>
</g>

<g transform="translate(114,500)">
  <rect x="0"   y="0" width="38" height="28" rx="3" fill="#fff8c5" stroke="#9a6700" stroke-width="1"/><text x="19"  y="14" fill="#24292f" font-size="11" text-anchor="middle" dominant-baseline="middle">-</text>
  <rect x="42"  y="0" width="38" height="28" rx="3" fill="#fff8c5" stroke="#9a6700" stroke-width="1"/><text x="61"  y="14" fill="#24292f" font-size="11" text-anchor="middle" dominant-baseline="middle">=</text>
  <rect x="84"  y="0" width="38" height="28" rx="3" fill="#fff8c5" stroke="#9a6700" stroke-width="1"/><text x="103" y="14" fill="#24292f" font-size="11" text-anchor="middle" dominant-baseline="middle">[</text>
  <rect x="126" y="0" width="38" height="28" rx="3" fill="#fff8c5" stroke="#9a6700" stroke-width="1"/><text x="145" y="14" fill="#24292f" font-size="11" text-anchor="middle" dominant-baseline="middle">]</text>
  <rect x="168" y="0" width="38" height="28" rx="3" fill="#fff8c5" stroke="#9a6700" stroke-width="1"/><text x="187" y="14" fill="#24292f" font-size="11" text-anchor="middle" dominant-baseline="middle">\</text>
  <rect x="286" y="0" width="38" height="28" rx="3" fill="#f6f8fa" stroke="#d0d7de" stroke-width="0.8"/>
  <rect x="328" y="0" width="38" height="28" rx="3" fill="#f6f8fa" stroke="#d0d7de" stroke-width="0.8"/>
  <rect x="370" y="0" width="38" height="28" rx="3" fill="#f6f8fa" stroke="#d0d7de" stroke-width="0.8"/>
  <rect x="412" y="0" width="38" height="28" rx="3" fill="#f6f8fa" stroke="#d0d7de" stroke-width="0.8"/>
  <rect x="454" y="0" width="38" height="28" rx="3" fill="#f6f8fa" stroke="#d0d7de" stroke-width="0.8"/>
</g>

<g transform="translate(114,534)">
  <rect x="0"   y="0" width="38" height="28" rx="3" fill="#f6f8fa" stroke="#d0d7de" stroke-width="0.8"/>
  <rect x="42"  y="0" width="38" height="28" rx="3" fill="#f6f8fa" stroke="#d0d7de" stroke-width="0.8"/>
  <rect x="84"  y="0" width="38" height="28" rx="3" fill="#f6f8fa" stroke="#d0d7de" stroke-width="0.8"/>
  <rect x="126" y="0" width="38" height="28" rx="3" fill="#f6f8fa" stroke="#d0d7de" stroke-width="0.8"/>
  <rect x="168" y="0" width="38" height="28" rx="3" fill="#f6f8fa" stroke="#d0d7de" stroke-width="0.8"/>
  <rect x="286" y="0" width="38" height="28" rx="3" fill="#f6f8fa" stroke="#d0d7de" stroke-width="0.8"/>
  <rect x="328" y="0" width="38" height="28" rx="3" fill="#f6f8fa" stroke="#d0d7de" stroke-width="0.8"/>
  <rect x="370" y="0" width="38" height="28" rx="3" fill="#f6f8fa" stroke="#d0d7de" stroke-width="0.8"/>
  <rect x="412" y="0" width="38" height="28" rx="3" fill="#f6f8fa" stroke="#d0d7de" stroke-width="0.8"/>
  <rect x="454" y="0" width="38" height="28" rx="3" fill="#f6f8fa" stroke="#d0d7de" stroke-width="0.8"/>
</g>

<g transform="translate(114,568)">
  <rect x="84"  y="0" width="38" height="28" rx="3" fill="#f6f8fa" stroke="#d0d7de" stroke-width="0.8"/>
  <rect x="126" y="0" width="38" height="28" rx="3" fill="#fff8c5" stroke="#9a6700" stroke-width="1"/><text x="145" y="14" fill="#24292f" font-size="11" text-anchor="middle" dominant-baseline="middle">`</text>
  <rect x="168" y="0" width="38" height="28" rx="3" fill="#fff8c5" stroke="#9a6700" stroke-width="1"/><text x="187" y="14" fill="#24292f" font-size="11" text-anchor="middle" dominant-baseline="middle">'</text>
  <rect x="286" y="0" width="38" height="28" rx="3" fill="#f6f8fa" stroke="#d0d7de" stroke-width="0.8"/>
  <rect x="328" y="0" width="38" height="28" rx="3" fill="#fff1e5" stroke="#bc4c00" stroke-width="1"/><text x="347" y="14" fill="#bc4c00" font-size="11" text-anchor="middle" dominant-baseline="middle">▼</text>
  <rect x="370" y="0" width="38" height="28" rx="3" fill="#f6f8fa" stroke="#d0d7de" stroke-width="0.8"/>
</g>

<!-- ═══ Legend ═══ -->
<rect x="20" y="644" width="680" height="44" rx="8" fill="#f6f8fa" stroke="#d0d7de" stroke-width="1"/>
<g transform="translate(54,655)">
  <rect x="0"   y="0" width="14" height="14" rx="2" fill="#ddf4ff" stroke="#0969da" stroke-width="1"/>
  <text x="20"  y="11" fill="#0969da" font-size="10" text-anchor="start">⇧ Shift hold</text>
  <rect x="120" y="0" width="14" height="14" rx="2" fill="#dafbe1" stroke="#1a7f37" stroke-width="1"/>
  <text x="140" y="11" fill="#1a7f37" font-size="10" text-anchor="start">⌃ Ctrl hold</text>
  <rect x="240" y="0" width="14" height="14" rx="2" fill="#fbefff" stroke="#8250df" stroke-width="1"/>
  <text x="260" y="11" fill="#8250df" font-size="10" text-anchor="start">⌥ Alt hold</text>
  <rect x="360" y="0" width="14" height="14" rx="2" fill="#fff8c5" stroke="#9a6700" stroke-width="1"/>
  <text x="380" y="11" fill="#24292f" font-size="10" text-anchor="start">NUM layer</text>
  <rect x="480" y="0" width="14" height="14" rx="2" fill="#fff1e5" stroke="#bc4c00" stroke-width="1"/>
  <text x="500" y="11" fill="#bc4c00" font-size="10" text-anchor="start">Layer hold</text>
</g>

</svg>
