<svg viewBox="0 0 720 700" xmlns="http://www.w3.org/2000/svg" font-family="ui-monospace, SFMono-Regular, 'SF Mono', Menlo, Consolas, 'Liberation Mono', monospace">
<style>
  .bg    { fill: #0d1117; }
  .panel { fill: #161b22; stroke: #30363d; stroke-width: 1; }
  .key   { fill: #21262d; stroke: #30363d; stroke-width: 0.8; }
  .dead  { fill: #1e2530; stroke: #3a424d; stroke-width: 0.8; }
  .kt    { fill: #e6edf3; font-size: 11px; text-anchor: middle; dominant-baseline: middle; }
  .sect  { fill: #8b949e; font-size: 11px; font-weight: 600; text-anchor: middle; }

  .k-sh { fill: #0d2d4a; stroke: #388bfd; stroke-width: 1; }
  .k-ct { fill: #0d2b1a; stroke: #3fb950; stroke-width: 1; }
  .k-al { fill: #1e0f3a; stroke: #bc8cff; stroke-width: 1; }
  .k-nu { fill: #2b1f00; stroke: #d29922; stroke-width: 1; }
  .k-la { fill: #2b1100; stroke: #f0883e; stroke-width: 1; }

  .kp { font-size: 10px; text-anchor: start; dominant-baseline: auto; }
  .km { font-size: 8px;  text-anchor: end;   dominant-baseline: auto; }
  .klp { font-size: 8px; text-anchor: start; dominant-baseline: auto; }
  .klm { font-size: 7px; text-anchor: end;   dominant-baseline: auto; }
</style>

<rect width="720" height="700" rx="12" class="bg"/>

<!-- ═══ BASE ═══ -->
<rect x="20" y="14" width="680" height="196" rx="8" class="panel"/>
<text x="360" y="34" class="sect">BASE</text>

<g transform="translate(114,46)">
  <rect x="0"   y="0" width="38" height="28" rx="3" class="key"/><text x="19"  y="14" class="kt">Q</text>
  <rect x="42"  y="0" width="38" height="28" rx="3" class="key"/><text x="61"  y="14" class="kt">W</text>
  <rect x="84"  y="0" width="38" height="28" rx="3" class="key"/><text x="103" y="14" class="kt">E</text>
  <rect x="126" y="0" width="38" height="28" rx="3" class="key"/><text x="145" y="14" class="kt">R</text>
  <rect x="168" y="0" width="38" height="28" rx="3" class="key"/><text x="187" y="14" class="kt">T</text>
  <rect x="286" y="0" width="38" height="28" rx="3" class="key"/><text x="305" y="14" class="kt">Y</text>
  <rect x="328" y="0" width="38" height="28" rx="3" class="key"/><text x="347" y="14" class="kt">U</text>
  <rect x="370" y="0" width="38" height="28" rx="3" class="key"/><text x="389" y="14" class="kt">I</text>
  <rect x="412" y="0" width="38" height="28" rx="3" class="key"/><text x="431" y="14" class="kt">O</text>
  <rect x="454" y="0" width="38" height="28" rx="3" class="key"/><text x="473" y="14" class="kt">P</text>
</g>

<g transform="translate(114,80)">
  <rect x="0"   y="0" width="38" height="28" rx="3" class="k-sh"/>
  <text x="6"   y="9"  fill="#79c0ff" font-size="10" text-anchor="start">A</text>
  <text x="32"  y="23" fill="#79c0ff" font-size="8"  text-anchor="end">⇧</text>
  <rect x="42"  y="0" width="38" height="28" rx="3" class="key"/><text x="61"  y="14" class="kt">S</text>
  <rect x="84"  y="0" width="38" height="28" rx="3" class="key"/><text x="103" y="14" class="kt">D</text>
  <rect x="126" y="0" width="38" height="28" rx="3" class="key"/><text x="145" y="14" class="kt">F</text>
  <rect x="168" y="0" width="38" height="28" rx="3" class="key"/><text x="187" y="14" class="kt">G</text>
  <rect x="286" y="0" width="38" height="28" rx="3" class="key"/><text x="305" y="14" class="kt">H</text>
  <rect x="328" y="0" width="38" height="28" rx="3" class="key"/><text x="347" y="14" class="kt">J</text>
  <rect x="370" y="0" width="38" height="28" rx="3" class="key"/><text x="389" y="14" class="kt">K</text>
  <rect x="412" y="0" width="38" height="28" rx="3" class="key"/><text x="431" y="14" class="kt">L</text>
  <rect x="454" y="0" width="38" height="28" rx="3" class="k-sh"/>
  <text x="460" y="9"  fill="#79c0ff" font-size="10" text-anchor="start">;</text>
  <text x="486" y="23" fill="#79c0ff" font-size="8"  text-anchor="end">⇧</text>
</g>

<g transform="translate(114,114)">
  <rect x="0"   y="0" width="38" height="28" rx="3" class="k-ct"/>
  <text x="6"   y="9"  fill="#56d364" font-size="10" text-anchor="start">Z</text>
  <text x="32"  y="23" fill="#56d364" font-size="8"  text-anchor="end">⌃</text>
  <rect x="42"  y="0" width="38" height="28" rx="3" class="key"/><text x="61"  y="14" class="kt">X</text>
  <rect x="84"  y="0" width="38" height="28" rx="3" class="key"/><text x="103" y="14" class="kt">C</text>
  <rect x="126" y="0" width="38" height="28" rx="3" class="key"/><text x="145" y="14" class="kt">V</text>
  <rect x="168" y="0" width="38" height="28" rx="3" class="key"/><text x="187" y="14" class="kt">B</text>
  <rect x="286" y="0" width="38" height="28" rx="3" class="key"/><text x="305" y="14" class="kt">N</text>
  <rect x="328" y="0" width="38" height="28" rx="3" class="key"/><text x="347" y="14" class="kt">M</text>
  <rect x="370" y="0" width="38" height="28" rx="3" class="key"/><text x="389" y="14" class="kt">,</text>
  <rect x="412" y="0" width="38" height="28" rx="3" class="key"/><text x="431" y="14" class="kt">.</text>
  <rect x="454" y="0" width="38" height="28" rx="3" class="k-ct"/>
  <text x="460" y="9"  fill="#56d364" font-size="10" text-anchor="start">/</text>
  <text x="486" y="23" fill="#56d364" font-size="8"  text-anchor="end">⌃</text>
</g>

<g transform="translate(114,148)">
  <rect x="84"  y="0" width="38" height="28" rx="3" class="k-al"/>
  <text x="90"  y="9"  fill="#d2a8ff" font-size="8"  text-anchor="start">ESC</text>
  <text x="116" y="23" fill="#d2a8ff" font-size="8"  text-anchor="end">⌥</text>
  <rect x="126" y="0" width="38" height="28" rx="3" class="key"/><text x="145" y="14" class="kt">⌘</text>
  <rect x="168" y="0" width="38" height="28" rx="3" class="key"/><text x="187" y="14" class="kt">BSP</text>
  <rect x="286" y="0" width="38" height="28" rx="3" class="key"/><text x="305" y="14" class="kt">TAB</text>
  <rect x="328" y="0" width="38" height="28" rx="3" class="k-la"/>
  <text x="334" y="9"  fill="#f0883e" font-size="8"  text-anchor="start">SPC</text>
  <text x="360" y="23" fill="#f0883e" font-size="7"  text-anchor="end">NUM</text>
  <rect x="370" y="0" width="38" height="28" rx="3" class="k-la"/>
  <text x="376" y="9"  fill="#f0883e" font-size="8"  text-anchor="start">ENT</text>
  <text x="402" y="23" fill="#f0883e" font-size="7"  text-anchor="end">NAV</text>
</g>

<!-- ═══ NAV ═══ -->
<rect x="20" y="224" width="680" height="196" rx="8" class="panel"/>
<text x="360" y="244" class="sect">NAV  (hold ENT)</text>

<g transform="translate(114,256)">
  <rect x="0"   y="0" width="38" height="28" rx="3" class="key"/><text x="19"  y="14" class="kt">F1</text>
  <rect x="42"  y="0" width="38" height="28" rx="3" class="key"/><text x="61"  y="14" class="kt">F2</text>
  <rect x="84"  y="0" width="38" height="28" rx="3" class="key"/><text x="103" y="14" class="kt">F3</text>
  <rect x="126" y="0" width="38" height="28" rx="3" class="key"/><text x="145" y="14" class="kt">F4</text>
  <rect x="168" y="0" width="38" height="28" rx="3" class="key"/><text x="187" y="14" class="kt">F5</text>
  <rect x="286" y="0" width="38" height="28" rx="3" class="key"/><text x="305" y="14" class="kt">F6</text>
  <rect x="328" y="0" width="38" height="28" rx="3" class="key"/><text x="347" y="14" class="kt">F7</text>
  <rect x="370" y="0" width="38" height="28" rx="3" class="key"/><text x="389" y="14" class="kt">F8</text>
  <rect x="412" y="0" width="38" height="28" rx="3" class="key"/><text x="431" y="14" class="kt">F9</text>
  <rect x="454" y="0" width="38" height="28" rx="3" class="key"/><text x="473" y="14" class="kt">F10</text>
</g>

<g transform="translate(114,290)">
  <rect x="0"   y="0" width="38" height="28" rx="3" class="key"/><text x="19"  y="14" class="kt">F11</text>
  <rect x="42"  y="0" width="38" height="28" rx="3" class="key"/><text x="61"  y="14" class="kt">F12</text>
  <rect x="84"  y="0" width="38" height="28" rx="3" class="k-sh"/><text x="103" y="14" fill="#79c0ff" font-size="11" text-anchor="middle" dominant-baseline="middle">↑</text>
  <rect x="126" y="0" width="38" height="28" rx="3" class="dead"/>
  <rect x="168" y="0" width="38" height="28" rx="3" class="dead"/>
  <rect x="286" y="0" width="38" height="28" rx="3" class="dead"/>
  <rect x="328" y="0" width="38" height="28" rx="3" class="k-sh"/><text x="347" y="14" fill="#79c0ff" font-size="11" text-anchor="middle" dominant-baseline="middle">PgU</text>
  <rect x="370" y="0" width="38" height="28" rx="3" class="k-sh"/><text x="389" y="14" fill="#79c0ff" font-size="11" text-anchor="middle" dominant-baseline="middle">Hom</text>
  <rect x="412" y="0" width="38" height="28" rx="3" class="dead"/>
  <rect x="454" y="0" width="38" height="28" rx="3" class="dead"/>
</g>

<g transform="translate(114,324)">
  <rect x="0"   y="0" width="38" height="28" rx="3" class="dead"/>
  <rect x="42"  y="0" width="38" height="28" rx="3" class="k-sh"/><text x="61"  y="14" fill="#79c0ff" font-size="11" text-anchor="middle" dominant-baseline="middle">←</text>
  <rect x="84"  y="0" width="38" height="28" rx="3" class="k-sh"/><text x="103" y="14" fill="#79c0ff" font-size="11" text-anchor="middle" dominant-baseline="middle">↓</text>
  <rect x="126" y="0" width="38" height="28" rx="3" class="k-sh"/><text x="145" y="14" fill="#79c0ff" font-size="11" text-anchor="middle" dominant-baseline="middle">→</text>
  <rect x="168" y="0" width="38" height="28" rx="3" class="dead"/>
  <rect x="286" y="0" width="38" height="28" rx="3" class="dead"/>
  <rect x="328" y="0" width="38" height="28" rx="3" class="k-sh"/><text x="347" y="14" fill="#79c0ff" font-size="11" text-anchor="middle" dominant-baseline="middle">PgD</text>
  <rect x="370" y="0" width="38" height="28" rx="3" class="k-sh"/><text x="389" y="14" fill="#79c0ff" font-size="11" text-anchor="middle" dominant-baseline="middle">End</text>
  <rect x="412" y="0" width="38" height="28" rx="3" class="dead"/>
  <rect x="454" y="0" width="38" height="28" rx="3" class="dead"/>
</g>

<g transform="translate(114,358)">
  <rect x="84"  y="0" width="38" height="28" rx="3" class="dead"/>
  <rect x="126" y="0" width="38" height="28" rx="3" class="dead"/>
  <rect x="168" y="0" width="38" height="28" rx="3" class="k-ct"/><text x="187" y="14" fill="#56d364" font-size="11" text-anchor="middle" dominant-baseline="middle">DEL</text>
  <rect x="286" y="0" width="38" height="28" rx="3" class="dead"/>
  <rect x="328" y="0" width="38" height="28" rx="3" class="dead"/>
  <rect x="370" y="0" width="38" height="28" rx="3" class="k-la"/><text x="389" y="14" fill="#f0883e" font-size="11" text-anchor="middle" dominant-baseline="middle">▼</text>
</g>

<!-- ═══ NUM ═══ -->
<rect x="20" y="434" width="680" height="196" rx="8" class="panel"/>
<text x="360" y="454" class="sect">NUM  (hold SPC)</text>

<g transform="translate(114,466)">
  <rect x="0"   y="0" width="38" height="28" rx="3" class="k-nu"/><text x="19"  y="14" fill="#e6edf3" font-size="11" text-anchor="middle" dominant-baseline="middle">1</text>
  <rect x="42"  y="0" width="38" height="28" rx="3" class="k-nu"/><text x="61"  y="14" fill="#e6edf3" font-size="11" text-anchor="middle" dominant-baseline="middle">2</text>
  <rect x="84"  y="0" width="38" height="28" rx="3" class="k-nu"/><text x="103" y="14" fill="#e6edf3" font-size="11" text-anchor="middle" dominant-baseline="middle">3</text>
  <rect x="126" y="0" width="38" height="28" rx="3" class="k-nu"/><text x="145" y="14" fill="#e6edf3" font-size="11" text-anchor="middle" dominant-baseline="middle">4</text>
  <rect x="168" y="0" width="38" height="28" rx="3" class="k-nu"/><text x="187" y="14" fill="#e6edf3" font-size="11" text-anchor="middle" dominant-baseline="middle">5</text>
  <rect x="286" y="0" width="38" height="28" rx="3" class="k-nu"/><text x="305" y="14" fill="#e6edf3" font-size="11" text-anchor="middle" dominant-baseline="middle">6</text>
  <rect x="328" y="0" width="38" height="28" rx="3" class="k-nu"/><text x="347" y="14" fill="#e6edf3" font-size="11" text-anchor="middle" dominant-baseline="middle">7</text>
  <rect x="370" y="0" width="38" height="28" rx="3" class="k-nu"/><text x="389" y="14" fill="#e6edf3" font-size="11" text-anchor="middle" dominant-baseline="middle">8</text>
  <rect x="412" y="0" width="38" height="28" rx="3" class="k-nu"/><text x="431" y="14" fill="#e6edf3" font-size="11" text-anchor="middle" dominant-baseline="middle">9</text>
  <rect x="454" y="0" width="38" height="28" rx="3" class="k-nu"/><text x="473" y="14" fill="#e6edf3" font-size="11" text-anchor="middle" dominant-baseline="middle">0</text>
</g>

<g transform="translate(114,500)">
  <rect x="0"   y="0" width="38" height="28" rx="3" class="k-nu"/><text x="19"  y="14" fill="#e6edf3" font-size="11" text-anchor="middle" dominant-baseline="middle">-</text>
  <rect x="42"  y="0" width="38" height="28" rx="3" class="k-nu"/><text x="61"  y="14" fill="#e6edf3" font-size="11" text-anchor="middle" dominant-baseline="middle">=</text>
  <rect x="84"  y="0" width="38" height="28" rx="3" class="k-nu"/><text x="103" y="14" fill="#e6edf3" font-size="11" text-anchor="middle" dominant-baseline="middle">[</text>
  <rect x="126" y="0" width="38" height="28" rx="3" class="k-nu"/><text x="145" y="14" fill="#e6edf3" font-size="11" text-anchor="middle" dominant-baseline="middle">]</text>
  <rect x="168" y="0" width="38" height="28" rx="3" class="k-nu"/><text x="187" y="14" fill="#e6edf3" font-size="11" text-anchor="middle" dominant-baseline="middle">\</text>
  <rect x="286" y="0" width="38" height="28" rx="3" class="dead"/>
  <rect x="328" y="0" width="38" height="28" rx="3" class="dead"/>
  <rect x="370" y="0" width="38" height="28" rx="3" class="dead"/>
  <rect x="412" y="0" width="38" height="28" rx="3" class="dead"/>
  <rect x="454" y="0" width="38" height="28" rx="3" class="dead"/>
</g>

<g transform="translate(114,534)">
  <rect x="0"   y="0" width="38" height="28" rx="3" class="dead"/>
  <rect x="42"  y="0" width="38" height="28" rx="3" class="dead"/>
  <rect x="84"  y="0" width="38" height="28" rx="3" class="dead"/>
  <rect x="126" y="0" width="38" height="28" rx="3" class="dead"/>
  <rect x="168" y="0" width="38" height="28" rx="3" class="dead"/>
  <rect x="286" y="0" width="38" height="28" rx="3" class="dead"/>
  <rect x="328" y="0" width="38" height="28" rx="3" class="dead"/>
  <rect x="370" y="0" width="38" height="28" rx="3" class="dead"/>
  <rect x="412" y="0" width="38" height="28" rx="3" class="dead"/>
  <rect x="454" y="0" width="38" height="28" rx="3" class="dead"/>
</g>

<g transform="translate(114,568)">
  <rect x="84"  y="0" width="38" height="28" rx="3" class="dead"/>
  <rect x="126" y="0" width="38" height="28" rx="3" class="k-nu"/><text x="145" y="14" fill="#e6edf3" font-size="11" text-anchor="middle" dominant-baseline="middle">`</text>
  <rect x="168" y="0" width="38" height="28" rx="3" class="k-nu"/><text x="187" y="14" fill="#e6edf3" font-size="11" text-anchor="middle" dominant-baseline="middle">'</text>
  <rect x="286" y="0" width="38" height="28" rx="3" class="dead"/>
  <rect x="328" y="0" width="38" height="28" rx="3" class="k-la"/><text x="347" y="14" fill="#f0883e" font-size="11" text-anchor="middle" dominant-baseline="middle">▼</text>
  <rect x="370" y="0" width="38" height="28" rx="3" class="dead"/>
</g>

<!-- ═══ Legend ═══ -->
<rect x="20" y="644" width="680" height="44" rx="8" class="panel"/>
<g transform="translate(54,655)">
  <rect x="0"   y="0" width="14" height="14" rx="2" class="k-sh"/>
  <text x="20"  y="11" fill="#79c0ff" font-size="10" text-anchor="start">⇧ Shift hold</text>

  <rect x="120" y="0" width="14" height="14" rx="2" class="k-ct"/>
  <text x="140" y="11" fill="#56d364" font-size="10" text-anchor="start">⌃ Ctrl hold</text>

  <rect x="240" y="0" width="14" height="14" rx="2" class="k-al"/>
  <text x="260" y="11" fill="#d2a8ff" font-size="10" text-anchor="start">⌥ Alt hold</text>

  <rect x="360" y="0" width="14" height="14" rx="2" class="k-nu"/>
  <text x="380" y="11" fill="#e6edf3" font-size="10" text-anchor="start">NUM layer</text>

  <rect x="480" y="0" width="14" height="14" rx="2" class="k-la"/>
  <text x="500" y="11" fill="#f0883e" font-size="10" text-anchor="start">Layer hold</text>
</g>

</svg>
